<?xml version="1.0" encoding="utf-8"?>
<svg version="1.0" width="2000.000000pt" height="2250.000000pt" viewBox="0 0 2000.000000 2250.000000" preserveAspectRatio="xMidYMid meet" xmlns="http://www.w3.org/2000/svg">
  <g transform="translate(0.000000,2250.000000) scale(0.100000,-0.100000)" fill="#000000" stroke="none">
    <path d="M7815 21239 c-447 -34 -905 -197 -1265 -448 -120 -84 -204 -154 -328 -276 -231 -224 -305 -329 -621 -877 l-224 -388 -496 0 c-375 0 -527 -4 -623 -15 -458 -53 -874 -222 -1254 -506 -127 -95 -388 -356 -483 -483 -285 -380 -453 -796 -506 -1254 -11 -96 -15 -248 -15 -623 l0 -496 -387 -224 c-551 -317 -652 -389 -884 -626 -386 -394 -630 -899 -705 -1463 -20 -151 -23 -461 -5 -605 38 -308 122 -587 254 -851 30 -60 152 -277 270 -482 l216 -372 -216 -373 c-118 -204 -240 -421 -270 -482 -482 -959 -302 -2137 445 -2907 235 -242 345 -320 905 -643 l377 -218 0 -496 c0 -375 4 -527 15 -623 69 -589 335 -1128 761 -1538 340 -328 726 -541 1179 -651 250 -60 273 -62 872 -66 l551 -4 223 -387 c318 -551 390 -653 626 -882 202 -197 401 -339 648 -460 727 -357 1562 -354 2280 8 55 27 268 147 473 265 l372 216 373 -216 c406 -235 518 -294 677 -358 579 -233 1242 -240 1836 -20 221 82 471 221 677 377 109 83 321 290 416 409 114 140 185 253 426 672 l218 377 496 0 c511 0 636 7 826 46 970 197 1744 934 1979 1884 68 273 69 288 73 897 l4 551 352 203 c572 329 645 380 861 589 398 388 654 871 745 1410 91 543 9 1087 -237 1575 -27 55 -147 268 -265 472 l-216 373 216 372 c235 407 294 519 358 678 261 650 237 1393 -66 2038 -65 140 -171 316 -265 442 -99 131 -307 347 -439 453 -141 113 -220 164 -658 417 l-387 223 0 496 c0 375 -4 527 -15 623 -53 457 -221 874 -506 1254 -99 133 -357 390 -494 492 -373 277 -791 444 -1244 497 -95 11 -248 15 -622 15 l-496 0 -223 386 c-252 437 -304 518 -417 659 -106 132 -322 340 -453 439 -777 580 -1818 674 -2680 241 -58 -29 -273 -150 -477 -268 l-373 -216 -372 216 c-205 118 -422 240 -483 270 -301 151 -614 237 -965 263 -151 11 -206 11 -365 -1z m534 -234 c237 -37 471 -110 681 -214 113 -55 754 -421 748 -426 -2 -2 -436 -253 -966 -559 l-963 -556 -1105 0 c-758 0 -1104 3 -1104 10 0 15 362 640 423 730 310 461 762 791 1293 945 116 34 306 72 419 84 123 13 447 5 574 -14z m3976 0 c254 -40 476 -109 702 -220 370 -181 676 -447 903 -785 65 -97 430 -725 430 -740 0 -7 -382 -10 -1105 -10 l-1105 0 -938 541 c-515 297 -950 549 -965 558 l-28 18 318 184 c360 208 499 279 662 338 178 66 409 116 611 135 92 8 418 -4 515 -19z m-1475 -1255 c462 -267 840 -488 840 -492 0 -5 -764 -8 -1697 -8 -933 0 -1693 3 -1689 8 14 14 1691 981 1698 979 4 -1 386 -220 848 -487z m-5600 -715 c0 -14 -1095 -1902 -1114 -1921 -19 -20 -1908 -1114 -1922 -1114 -11 0 4 888 16 975 63 454 233 856 505 1190 216 266 485 480 790 630 287 141 614 226 925 238 131 6 800 7 800 2z m2210 -2 c0 -10 -2920 -1696 -2926 -1690 -3 3 913 1600 962 1675 l14 22 975 0 c536 0 975 -3 975 -7z m6422 -1034 c992 -572 1808 -1046 1815 -1052 6 -7 480 -823 1052 -1815 l1041 -1803 0 -2079 0 -2079 -614 -1063 c-337 -585 -805 -1396 -1040 -1803 -235 -407 -433 -745 -439 -752 -7 -6 -823 -480 -1815 -1052 l-1803 -1041 -2079 0 -2079 0 -1803 1041 c-992 572 -1808 1046 -1815 1052 -6 7 -153 257 -326 557 -173 300 -641 1111 -1041 1803 l-726 1258 0 2079 0 2079 1040 1803 c572 992 1051 1811 1063 1821 12 9 828 482 1812 1051 l1790 1035 2082 0 2082 1 1803 -1041z m616 1029 c22 -28 972 -1681 968 -1685 -6 -6 -2926 1680 -2926 1689 0 5 438 8 974 8 767 0 976 -3 984 -12z m1078 2 c581 -35 1080 -255 1493 -655 434 -421 672 -939 711 -1543 10 -162 14 -832 5 -832 -14 0 -1903 1095 -1921 1114 -19 18 -1114 1907 -1114 1921 0 9 660 5 826 -5z m-11669 -2322 c-2 -7 -312 -546 -689 -1198 -376 -652 -753 -1305 -838 -1452 -85 -148 -158 -268 -162 -268 -5 0 -8 439 -8 975 l0 976 37 22 c164 97 1650 955 1657 956 4 1 6 -5 3 -11z m13024 -469 c459 -265 840 -486 847 -491 9 -8 12 -217 12 -984 0 -536 -3 -974 -8 -974 -7 0 -1692 2912 -1692 2924 0 3 2 6 4 6 2 0 379 -217 837 -481z m-14931 -1734 l0 -1105 -547 -948 c-300 -521 -552 -955 -558 -965 -11 -15 -37 25 -196 300 -101 175 -207 366 -236 424 -104 208 -182 458 -219 699 -25 160 -25 501 -1 658 42 262 110 480 221 707 185 377 453 683 796 911 114 76 710 422 728 423 9 1 12 -226 12 -1104z m16343 919 c453 -263 557 -335 747 -524 185 -182 326 -380 446 -625 111 -227 179 -445 221 -707 24 -157 24 -498 -1 -658 -37 -241 -115 -490 -219 -699 -52 -106 -417 -744 -422 -739 -2 2 -253 436 -559 966 l-556 963 0 1105 c0 779 3 1104 11 1104 6 0 155 -84 332 -186z m-16343 -4174 c0 -929 -3 -1690 -7 -1690 -5 0 -227 380 -496 845 l-487 845 487 845 c269 465 491 845 496 845 4 0 7 -760 7 -1690z m16503 845 l487 -845 -487 -845 c-269 -465 -491 -845 -495 -845 -5 0 -8 761 -8 1690 0 930 3 1690 8 1690 4 0 226 -380 495 -845z m-17059 -2033 l556 -963 0 -1104 c0 -759 -3 -1105 -10 -1105 -16 0 -641 363 -740 430 -503 338 -856 868 -980 1469 -105 509 -39 1029 189 1491 54 110 421 753 427 748 1 -2 252 -436 558 -966z m17856 653 c270 -467 337 -613 405 -880 55 -214 69 -332 69 -575 0 -236 -13 -348 -64 -558 -43 -174 -92 -309 -175 -479 -181 -369 -448 -676 -785 -903 -97 -65 -725 -430 -740 -430 -7 0 -10 382 -10 1105 l0 1105 557 965 c306 531 560 961 564 957 3 -4 84 -142 179 -307z m-16790 -2497 c156 -271 535 -929 843 -1461 307 -533 557 -970 555 -973 -4 -3 -1601 913 -1675 962 l-23 14 0 975 c0 536 3 975 8 975 4 0 135 -222 292 -492z m15280 -483 l0 -975 -22 -14 c-76 -49 -1672 -965 -1675 -962 -6 6 1680 2926 1689 2926 5 0 8 -439 8 -975z m-14622 -1781 c521 -301 955 -554 965 -564 32 -30 1116 -1914 1107 -1924 -5 -5 -195 -6 -447 -3 -483 6 -593 16 -830 78 -553 144 -1039 493 -1367 984 -139 207 -273 524 -326 770 -46 218 -51 282 -57 753 -3 248 -3 452 1 452 4 0 433 -246 954 -546z m14619 99 c-5 -387 -8 -467 -26 -586 -41 -264 -103 -461 -221 -702 -121 -245 -261 -436 -472 -640 -411 -400 -912 -620 -1492 -655 -168 -10 -826 -14 -826 -5 0 12 1093 1901 1110 1919 18 19 1908 1115 1924 1115 5 1 6 -190 3 -446z m-11786 -1735 c802 -464 1459 -846 1459 -850 0 -5 -439 -8 -975 -8 l-975 0 -14 23 c-22 32 -966 1669 -966 1674 0 1 3 3 6 3 3 0 662 -379 1465 -842z m9469 838 c0 -4 -944 -1639 -966 -1673 l-14 -23 -975 0 c-536 0 -975 3 -975 8 0 7 2908 1691 2923 1692 4 0 7 -2 7 -4z m-6672 -2453 c521 -300 955 -552 965 -558 15 -11 -25 -37 -300 -196 -175 -100 -361 -204 -413 -231 -493 -246 -1045 -309 -1585 -181 -333 79 -675 247 -942 464 -160 131 -333 321 -452 498 -64 95 -431 727 -431 742 0 5 424 9 1105 9 l1106 0 947 -547z m2892 540 c0 -5 -380 -227 -845 -496 l-845 -487 -845 487 c-465 269 -845 491 -845 496 0 4 761 7 1690 7 930 0 1690 -3 1690 -7z m2670 -3 c0 -16 -363 -641 -430 -740 -229 -340 -530 -602 -905 -786 -663 -325 -1416 -324 -2074 4 -182 91 -733 415 -719 423 7 4 441 255 963 558 l950 550 1108 0 c760 1 1107 -2 1107 -9z" style="fill: rgb(255, 64, 87);"/>
    <path d="M5711 16848 c-50 -33 -68 -71 -88 -183 -17 -92 -18 -168 -15 -930 4 -909 -22 -3475 -38 -3810 -12 -254 -36 -669 -50 -860 -5 -77 -17 -273 -25 -435 -8 -162 -24 -439 -36 -615 -30 -475 -33 -978 -14 -2025 10 -509 21 -1211 25 -1560 7 -642 9 -671 45 -727 45 -69 195 -86 500 -60 309 27 334 28 564 28 228 -1 290 6 325 37 49 44 47 -2 57 1376 23 3333 45 4807 84 5660 8 175 15 335 15 354 0 53 12 32 60 -108 24 -69 77 -206 118 -305 40 -99 103 -259 139 -355 128 -341 272 -697 348 -860 104 -224 512 -1010 770 -1485 489 -898 586 -1094 701 -1422 157 -448 477 -1214 608 -1458 51 -95 217 -366 253 -413 13 -18 36 -40 50 -49 25 -17 26 -17 54 16 53 64 159 283 364 751 204 466 509 1105 1185 2480 171 349 315 640 320 645 4 6 350 694 769 1530 419 836 801 1592 848 1680 87 163 171 301 178 293 5 -4 -36 -1474 -56 -2053 -6 -181 -9 -380 -6 -441 18 -332 -51 -2118 -103 -2684 -22 -245 -31 -825 -28 -1905 3 -1109 3 -1131 23 -1164 11 -19 32 -43 47 -54 26 -20 32 -20 145 -8 65 8 171 16 235 18 100 4 119 8 135 25 17 19 18 79 18 1307 0 924 4 1334 13 1456 47 647 70 1114 102 2110 6 165 15 1041 20 1947 11 1908 27 2774 56 2998 16 124 76 472 104 600 35 167 50 377 31 447 -14 52 -60 93 -105 93 -123 0 -344 -285 -694 -895 -63 -110 -173 -312 -245 -450 -71 -137 -173 -333 -227 -435 -53 -102 -586 -1166 -1184 -2365 -1279 -2565 -1856 -3709 -1867 -3698 -14 15 -309 683 -439 993 -70 168 -148 350 -173 405 -94 209 -189 442 -238 583 -210 608 -597 1513 -908 2122 -74 146 -165 326 -202 400 -177 353 -547 1263 -711 1750 -93 274 -141 452 -212 775 -83 376 -108 481 -147 603 -38 119 -59 161 -106 213 -49 54 -97 77 -190 91 -81 12 -492 16 -788 8 -147 -4 -176 -2 -215 13 -25 10 -72 21 -105 24 -52 4 -65 2 -94 -19z" style="fill: rgb(255, 64, 87);"/>
  </g>
</svg>