<?xml version="1.0" encoding="utf-8"?>
<svg viewBox="-18.494 0 518.494 277.305" xmlns="http://www.w3.org/2000/svg">
  <defs>
    <clipPath id="id4">
      <path d="M 669.832031 135 L 1372.582031 135 L 1372.582031 462 L 669.832031 462 Z M 669.832031 135 " clip-rule="nonzero"/>
    </clipPath>
    <clipPath id="id5">
      <path d="M 669.832031 502 L 1353 502 L 1353 556 L 669.832031 556 Z M 669.832031 502 " clip-rule="nonzero"/>
    </clipPath>
  </defs>
  <g clip-path="url(#id4)" transform="matrix(0.408113, 0, 0, 0.408113, -69.615028, -16.165291)" style="">
    <path d="M 1170.863281 402.34375 L 1170.863281 402.855469 C 1170.863281 436.785156 1146.152344 461.71875 1105.996094 461.71875 C 1073.566406 461.71875 1051.171875 448.867188 1035.730469 430.617188 L 1063.015625 404.652344 C 1075.371094 418.535156 1088.238281 426.246094 1106.515625 426.246094 C 1121.441406 426.246094 1131.996094 417.765625 1131.996094 404.398438 C 1131.796875 404.042969 1134.90625 381.007812 1096.734375 381.007812 L 1080.261719 381.007812 L 1074.082031 355.8125 L 1131.878906 297.75 L 1108.71875 312.632812 L 1046.285156 312.632812 L 1046.285156 278.707031 L 1168.03125 278.707031 L 1168.03125 308.523438 L 1122.472656 351.960938 C 1146.925781 356.074219 1170.863281 368.925781 1170.863281 402.34375 M 1057.867188 196.429688 C 1057.867188 180.140625 1069.5625 167.027344 1085.972656 167.027344 L 1104.46875 167.027344 L 1099.625 169.441406 C 1099.847656 214.09375 1098.742188 219.714844 1101.59375 226.242188 L 1086.179688 226.238281 C 1069.765625 226.238281 1057.867188 212.921875 1057.867188 196.636719 Z M 1085.972656 233.71875 L 1102.394531 233.71875 L 1102.394531 227.8125 C 1103.59375 229.890625 1105.203125 231.503906 1107.582031 232.628906 C 1112.804688 235.109375 1109.007812 233.550781 1258.820312 234.011719 L 1258.820312 159.550781 L 1250.917969 159.550781 L 1250.917969 226.121094 C 1250.917969 226.121094 1113.933594 226.648438 1111.332031 225.476562 C 1109.070312 224.460938 1108.25 222.136719 1107.875 219.660156 C 1107.277344 215.636719 1107.640625 215.5625 1107.53125 159.550781 L 1086.179688 159.550781 C 1064.332031 159.550781 1049.457031 176.863281 1049.457031 196.636719 L 1049.457031 196.839844 C 1049.457031 216.613281 1064.125 233.71875 1085.972656 233.71875 M 1317.054688 151.65625 L 1299.742188 151.65625 C 1300.117188 145.929688 1297.46875 135.25 1309.132812 135.25 L 1314.707031 135.25 L 1314.707031 140.75 C 1309.308594 141.148438 1306.203125 139.433594 1306.203125 143.746094 L 1306.203125 145.570312 L 1317.054688 145.570312 Z M 1337.066406 234.816406 C 1334.957031 234.816406 1332.816406 234.519531 1330.644531 233.925781 L 1332.71875 226.332031 C 1336.292969 227.347656 1340.863281 227.410156 1342.746094 224.210938 C 1344.945312 220.429688 1344.160156 219.097656 1344.277344 159.550781 L 1352.175781 159.550781 C 1351.949219 215.132812 1352.722656 216.6875 1351.4375 223.128906 C 1349.921875 230.664062 1345.351562 234.816406 1337.066406 234.816406 M 1107.53125 151.65625 L 1099.625 151.65625 L 1099.625 143.765625 L 1107.53125 143.765625 Z M 1281.445312 178.886719 C 1285.15625 171.660156 1292.941406 167.636719 1300.898438 167.554688 L 1300.898438 167.539062 L 1313.664062 167.539062 L 1309.152344 169.789062 L 1309.152344 205.226562 C 1302.933594 205.042969 1298.5625 205.816406 1292.804688 203.988281 C 1284.941406 201.515625 1279.617188 195.464844 1279.617188 186.679688 C 1279.617188 183.855469 1280.226562 181.253906 1281.445312 178.886719 M 1281.445312 206.851562 C 1291.734375 214.1875 1305.765625 212.976562 1306.496094 213.113281 L 1309.152344 207.546875 C 1308.726562 212.945312 1310.636719 220.484375 1305.597656 224.261719 C 1301.335938 227.449219 1293.738281 227.34375 1289.050781 226.234375 C 1287.109375 225.777344 1284.886719 224.984375 1282.382812 223.867188 L 1279.914062 231.464844 C 1284.921875 233.308594 1289.710938 234.816406 1295.027344 234.816406 C 1302.730469 234.816406 1308.328125 232.992188 1311.820312 229.34375 C 1315.308594 225.691406 1317.054688 220.777344 1317.054688 214.59375 L 1317.054688 159.550781 C 1307.328125 159.855469 1299.953125 158.570312 1291.078125 161.625 C 1267.292969 169.808594 1266.820312 196.433594 1281.445312 206.851562 M 1091.726562 151.65625 L 1083.820312 151.65625 L 1083.820312 143.765625 L 1091.726562 143.765625 Z M 1009.929688 159.464844 L 1018.089844 159.464844 L 1018.089844 233.566406 L 1011.410156 233.566406 L 958.855469 166.914062 L 963.503906 177.714844 L 963.503906 233.566406 L 955.339844 233.566406 L 955.339844 159.464844 L 963.183594 159.464844 L 1013.371094 223.21875 L 1009.929688 214.125 Z M 701.742188 234.097656 L 669.832031 159.464844 L 679.164062 159.464844 C 679.636719 160.613281 705.066406 222.113281 707.644531 228.351562 L 706.835938 220.207031 L 732.058594 159.464844 L 741.0625 159.464844 L 709.160156 234.097656 Z M 843.132812 159.464844 L 851.507812 159.464844 L 851.507812 233.566406 L 843.132812 233.566406 Z M 932.941406 196.726562 C 932.941406 213.5625 920.863281 227.109375 903.902344 227.109375 C 886.941406 227.109375 874.644531 213.347656 874.644531 196.519531 L 874.644531 196.304688 C 874.644531 179.472656 886.730469 165.925781 903.6875 165.925781 C 920.648438 165.925781 932.941406 179.6875 932.941406 196.519531 Z M 903.902344 158.199219 C 881.324219 158.199219 865.953125 176.085938 865.953125 196.519531 L 865.953125 196.726562 C 865.953125 217.15625 881.109375 234.835938 903.6875 234.835938 C 926.265625 234.835938 941.636719 216.949219 941.636719 196.519531 L 941.636719 196.304688 C 941.636719 175.878906 926.480469 158.199219 903.902344 158.199219 M 829.316406 213.453125 L 829.316406 213.664062 C 829.316406 226.363281 818.71875 234.625 803.984375 234.625 C 792.21875 234.625 782.574219 230.707031 773.671875 222.765625 L 778.863281 216.628906 C 786.601562 223.613281 794.023438 227.105469 804.304688 227.105469 C 814.269531 227.105469 820.839844 221.816406 820.839844 214.511719 L 820.839844 214.300781 C 820.839844 193.621094 776.640625 207.261719 776.640625 178.835938 L 776.640625 178.628906 C 776.640625 166.984375 786.921875 158.40625 801.019531 158.40625 C 811.828125 158.40625 819.566406 161.480469 827.09375 167.515625 L 822.21875 173.96875 C 805.398438 160.273438 785.011719 165.519531 785.011719 177.886719 L 785.011719 178.097656 C 785.011719 185.082031 788.824219 189 805.152344 192.492188 C 821.6875 196.09375 829.316406 202.128906 829.316406 213.453125 M 760.8125 233.566406 L 752.4375 233.566406 L 752.4375 159.46875 L 760.8125 159.46875 Z M 1248.160156 241.898438 L 1256.0625 241.898438 L 1256.0625 249.792969 L 1248.160156 249.792969 Z M 1232.351562 241.898438 L 1240.257812 241.898438 L 1240.257812 249.792969 L 1232.351562 249.792969 Z M 736.097656 424.445312 L 804.796875 424.445312 L 804.796875 458.636719 L 671.464844 458.636719 L 671.464844 427.277344 C 738.089844 370.703125 762.585938 359.648438 762.585938 335 C 762.585938 319.832031 752.546875 311.605469 738.390625 311.605469 C 724.488281 311.605469 714.964844 319.3125 701.582031 335.765625 L 673.78125 313.40625 C 691.542969 289.242188 708.792969 276.132812 740.964844 276.132812 C 778.285156 276.132812 802.996094 297.980469 802.996094 331.65625 L 802.996094 332.167969 C 802.996094 374.394531 771.046875 388.003906 716.261719 432.179688 L 708.613281 438.078125 Z M 1331.148438 369.183594 C 1331.148438 400.027344 1309.011719 425.21875 1277.089844 425.21875 C 1245.171875 425.21875 1222.523438 399.515625 1222.523438 368.667969 L 1222.523438 368.152344 C 1222.523438 337.308594 1244.664062 312.121094 1276.578125 312.121094 C 1308.492188 312.121094 1331.148438 337.828125 1331.148438 368.667969 Z M 1277.089844 275.621094 C 1221.496094 275.621094 1181.082031 317.515625 1181.082031 368.667969 L 1181.082031 369.183594 C 1181.082031 420.335938 1220.976562 461.71875 1276.578125 461.71875 C 1332.175781 461.71875 1372.582031 419.820312 1372.582031 368.667969 L 1372.582031 368.152344 C 1372.582031 317.003906 1332.6875 275.621094 1277.089844 275.621094 " fill-opacity="1" fill-rule="nonzero" style="fill: rgb(86, 97, 109);"/>
  </g>
  <path d="M 302.789 91.489 L 306.514 95.058 L 302.939 98.774 L 299.215 95.205" fill-opacity="1" fill-rule="nonzero" style="fill: rgb(86, 97, 109);"/>
  <path d="M 311.312 95.205 L 315.033 98.774 L 318.608 95.058 L 314.884 91.489" fill-opacity="1" fill-rule="nonzero" style="fill: rgb(86, 97, 109);"/>
  <path d="M 306.067 99.893 L 308.97 102.672 L 311.75 99.777 L 308.85 96.996" fill-opacity="1" fill-rule="nonzero" style="fill: rgb(86, 97, 109);"/>
  <path d="M 316.7 101.482 L 319.597 104.262 L 322.379 101.367 L 319.481 98.587" fill-opacity="1" fill-rule="nonzero" style="fill: rgb(86, 97, 109);"/>
  <path d="M 301.326 104.319 L 304.226 107.1 L 307.008 104.205 L 304.111 101.426" fill-opacity="1" fill-rule="nonzero" style="fill: rgb(86, 97, 109);"/>
  <path d="M 311.057 104.657 L 313.954 107.435 L 316.736 104.542 L 313.837 101.762" fill-opacity="1" fill-rule="nonzero" style="fill: rgb(86, 97, 109);"/>
  <path d="M 307.252 107.988 L 309.29 109.944 L 311.248 107.905 L 309.205 105.95" fill-opacity="1" fill-rule="nonzero" style="fill: rgb(86, 97, 109);"/>
  <path d="M 314.943 109.522 L 316.983 111.478 L 318.942 109.44 L 316.904 107.486" fill-opacity="1" fill-rule="nonzero" style="fill: rgb(86, 97, 109);"/>
  <path d="M 331.746 94.03 L 338.073 92.868 L 339.231 99.188 L 332.903 100.35 L 331.746 94.03 Z M 331.746 94.03" fill-opacity="1" fill-rule="nonzero" style="fill: rgb(86, 97, 109);"/>
  <path d="M 323.491 96.677 L 328.566 95.747 L 329.494 100.818 L 324.418 101.747 L 323.491 96.677 Z M 323.491 96.677" fill-opacity="1" fill-rule="nonzero" style="fill: rgb(86, 97, 109);"/>
  <path d="M 333.304 103.742 L 338.378 102.811 L 339.308 107.882 L 334.232 108.813 L 333.304 103.742 Z M 333.304 103.742" fill-opacity="1" fill-rule="nonzero" style="fill: rgb(86, 97, 109);"/>
  <path d="M 326.303 104.485 L 330.253 103.76 L 330.977 107.705 L 327.024 108.43 L 326.303 104.485 Z M 326.303 104.485" fill-opacity="1" fill-rule="nonzero" style="fill: rgb(86, 97, 109);"/>
  <path d="M 333.991 111.982 L 337.943 111.26 L 338.668 115.207 L 334.716 115.932 L 333.991 111.982 Z M 333.991 111.982" fill-opacity="1" fill-rule="nonzero" style="fill: rgb(86, 97, 109);"/>
  <path d="M 320.381 106.087 L 324.333 105.367 L 325.058 109.313 L 321.104 110.038 L 320.381 106.087 Z M 320.381 106.087" fill-opacity="1" fill-rule="nonzero" style="fill: rgb(86, 97, 109);"/>
  <path d="M 327.555 111.261 L 331.507 110.536 L 332.23 114.485 L 328.277 115.207 L 327.555 111.261 Z M 327.555 111.261" fill-opacity="1" fill-rule="nonzero" style="fill: rgb(86, 97, 109);"/>
  <path d="M 322.517 111.736 L 325.299 111.227 L 325.807 114.006 L 323.025 114.515 L 322.517 111.736 Z M 322.517 111.736" fill-opacity="1" fill-rule="nonzero" style="fill: rgb(86, 97, 109);"/>
  <path d="M 327.858 117.478 L 330.638 116.968 L 331.147 119.745 L 328.366 120.252 L 327.858 117.478 Z M 327.858 117.478" fill-opacity="1" fill-rule="nonzero" style="fill: rgb(86, 97, 109);"/>
  <path d="M 350.565 114.728 L 347.799 120.532 L 353.61 123.291 L 356.373 117.49" fill-opacity="1" fill-rule="nonzero" style="fill: rgb(86, 97, 109);"/>
  <path d="M 342.317 112.048 L 340.1 116.704 L 344.762 118.917 L 346.978 114.261" fill-opacity="1" fill-rule="nonzero" style="fill: rgb(86, 97, 109);"/>
  <path d="M 346.132 123.514 L 343.914 128.171 L 348.575 130.382 L 350.792 125.726" fill-opacity="1" fill-rule="nonzero" style="fill: rgb(86, 97, 109);"/>
  <path d="M 340.025 120.023 L 338.3 123.646 L 341.926 125.369 L 343.656 121.746" fill-opacity="1" fill-rule="nonzero" style="fill: rgb(86, 97, 109);"/>
  <path d="M 341.867 130.599 L 340.141 134.223 L 343.769 135.947 L 345.498 132.321" fill-opacity="1" fill-rule="nonzero" style="fill: rgb(86, 97, 109);"/>
  <path d="M 334.279 117.863 L 332.552 121.489 L 336.182 123.214 L 337.909 119.588" fill-opacity="1" fill-rule="nonzero" style="fill: rgb(86, 97, 109);"/>
  <path d="M 337.071 126.248 L 335.346 129.873 L 338.971 131.598 L 340.702 127.971" fill-opacity="1" fill-rule="nonzero" style="fill: rgb(86, 97, 109);"/>
  <path d="M 332.707 123.693 L 331.492 126.243 L 334.045 127.454 L 335.259 124.906" fill-opacity="1" fill-rule="nonzero" style="fill: rgb(86, 97, 109);"/>
  <path d="M 332.456 134.008 L 333.667 131.46 L 336.22 132.676 L 335.007 135.224 L 332.456 134.008 Z M 332.456 134.008" fill-opacity="1" fill-rule="nonzero" style="fill: rgb(86, 97, 109);"/>
  <path d="M 353.695 142.509 L 348.053 145.599 L 351.149 151.23 L 356.788 148.142" fill-opacity="1" fill-rule="nonzero" style="fill: rgb(86, 97, 109);"/>
  <path d="M 348.578 135.517 L 344.054 137.998 L 346.536 142.516 L 351.059 140.036" fill-opacity="1" fill-rule="nonzero" style="fill: rgb(86, 97, 109);"/>
  <path d="M 344.957 147.042 L 340.429 149.52 L 342.913 154.043 L 347.436 151.562" fill-opacity="1" fill-rule="nonzero" style="fill: rgb(86, 97, 109);"/>
  <path d="M 342.047 140.644 L 338.524 142.575 L 340.457 146.091 L 343.98 144.162" fill-opacity="1" fill-rule="nonzero" style="fill: rgb(86, 97, 109);"/>
  <path d="M 337.344 150.296 L 333.821 152.228 L 335.753 155.745 L 339.277 153.816" fill-opacity="1" fill-rule="nonzero" style="fill: rgb(86, 97, 109);"/>
  <path d="M 338.652 135.538 L 335.13 137.467 L 337.063 140.987 L 340.587 139.056" fill-opacity="1" fill-rule="nonzero" style="fill: rgb(86, 97, 109);"/>
  <path d="M 336.002 143.969 L 332.481 145.9 L 334.413 149.417 L 337.935 147.487" fill-opacity="1" fill-rule="nonzero" style="fill: rgb(86, 97, 109);"/>
  <path d="M 333.96 139.346 L 331.481 140.704 L 332.841 143.179 L 335.317 141.822" fill-opacity="1" fill-rule="nonzero" style="fill: rgb(86, 97, 109);"/>
  <path d="M 330.189 146.216 L 327.711 147.572 L 329.068 150.047 L 331.548 148.69" fill-opacity="1" fill-rule="nonzero" style="fill: rgb(86, 97, 109);"/>
  <path d="M 332.777 172.433 L 333.564 166.056 L 339.949 166.846 L 339.162 173.222 L 332.777 172.433 Z M 332.777 172.433" fill-opacity="1" fill-rule="nonzero" style="fill: rgb(86, 97, 109);"/>
  <path d="M 334.155 162.694 L 334.788 157.579 L 339.91 158.214 L 339.275 163.328 L 334.155 162.694 Z M 334.155 162.694" fill-opacity="1" fill-rule="nonzero" style="fill: rgb(86, 97, 109);"/>
  <path d="M 324.461 169.923 L 325.095 164.808 L 330.216 165.442 L 329.584 170.559 L 324.461 169.923 Z M 324.461 169.923" fill-opacity="1" fill-rule="nonzero" style="fill: rgb(86, 97, 109);"/>
  <path d="M 327.128 162.055 L 327.62 158.074 L 331.61 158.564 L 331.118 162.549 L 327.128 162.055 Z M 327.128 162.055" fill-opacity="1" fill-rule="nonzero" style="fill: rgb(86, 97, 109);"/>
  <path d="M 317.657 167.133 L 318.147 163.151 L 322.135 163.644 L 321.645 167.627 L 317.657 167.133 Z M 317.657 167.133" fill-opacity="1" fill-rule="nonzero" style="fill: rgb(86, 97, 109);"/>
  <path d="M 327.364 155.92 L 327.856 151.935 L 331.846 152.431 L 331.353 156.414 L 327.364 155.92 Z M 327.364 155.92" fill-opacity="1" fill-rule="nonzero" style="fill: rgb(86, 97, 109);"/>
  <path d="M 320.276 161.205 L 320.772 157.223 L 324.76 157.717 L 324.267 161.7 L 320.276 161.205 Z M 320.276 161.205" fill-opacity="1" fill-rule="nonzero" style="fill: rgb(86, 97, 109);"/>
  <path d="M 322.66 155.237 L 323.007 152.438 L 325.812 152.786 L 325.465 155.586 L 322.66 155.237 Z M 322.66 155.237" fill-opacity="1" fill-rule="nonzero" style="fill: rgb(86, 97, 109);"/>
  <path d="M 315.57 158.602 L 315.917 155.799 L 318.723 156.147 L 318.376 158.947 L 315.57 158.602 Z M 315.57 158.602" fill-opacity="1" fill-rule="nonzero" style="fill: rgb(86, 97, 109);"/>
  <path d="M 314.547 178.593 L 309.83 174.222 L 305.453 178.931 L 310.168 183.301" fill-opacity="1" fill-rule="nonzero" style="fill: rgb(86, 97, 109);"/>
  <path d="M 313.676 88.605 L 308.962 84.234 L 304.586 88.942 L 309.302 93.313" fill-opacity="1" fill-rule="nonzero" style="fill: rgb(86, 97, 109);"/>
  <path d="M 319.577 171.54 L 315.794 168.033 L 312.284 171.812 L 316.066 175.317" fill-opacity="1" fill-rule="nonzero" style="fill: rgb(86, 97, 109);"/>
  <path d="M 307.482 171.742 L 303.698 168.234 L 300.187 172.012 L 303.969 175.517" fill-opacity="1" fill-rule="nonzero" style="fill: rgb(86, 97, 109);"/>
  <path d="M 312.644 166.967 L 309.7 164.238 L 306.965 167.177 L 309.909 169.908" fill-opacity="1" fill-rule="nonzero" style="fill: rgb(86, 97, 109);"/>
  <path d="M 301.99 165.555 L 299.045 162.822 L 296.311 165.765 L 299.257 168.496" fill-opacity="1" fill-rule="nonzero" style="fill: rgb(86, 97, 109);"/>
  <path d="M 316.427 162.141 L 313.48 159.41 L 310.749 162.353 L 313.694 165.082" fill-opacity="1" fill-rule="nonzero" style="fill: rgb(86, 97, 109);"/>
  <path d="M 307.58 162.289 L 304.634 159.558 L 301.899 162.495 L 304.846 165.227" fill-opacity="1" fill-rule="nonzero" style="fill: rgb(86, 97, 109);"/>
  <path d="M 311.328 158.895 L 309.256 156.974 L 307.333 159.042 L 309.405 160.963" fill-opacity="1" fill-rule="nonzero" style="fill: rgb(86, 97, 109);"/>
  <path d="M 303.611 157.486 L 301.541 155.565 L 299.616 157.634 L 301.686 159.553" fill-opacity="1" fill-rule="nonzero" style="fill: rgb(86, 97, 109);"/>
  <path d="M 279.496 168.221 L 285.803 166.954 L 287.066 173.252 L 280.759 174.518 L 279.496 168.221 Z M 279.496 168.221" fill-opacity="1" fill-rule="nonzero" style="fill: rgb(86, 97, 109);"/>
  <path d="M 289.207 166.431 L 294.267 165.416 L 295.278 170.47 L 290.218 171.484 L 289.207 166.431 Z M 289.207 166.431" fill-opacity="1" fill-rule="nonzero" style="fill: rgb(86, 97, 109);"/>
  <path d="M 279.285 159.525 L 284.345 158.51 L 285.358 163.564 L 280.298 164.578 L 279.285 159.525 Z M 279.285 159.525" fill-opacity="1" fill-rule="nonzero" style="fill: rgb(86, 97, 109);"/>
  <path d="M 287.608 159.566 L 291.549 158.777 L 292.336 162.711 L 288.395 163.502 L 287.608 159.566 Z M 287.608 159.566" fill-opacity="1" fill-rule="nonzero" style="fill: rgb(86, 97, 109);"/>
  <path d="M 293.502 157.862 L 297.441 157.072 L 298.23 161.009 L 294.289 161.798 L 293.502 157.862 Z M 293.502 157.862" fill-opacity="1" fill-rule="nonzero" style="fill: rgb(86, 97, 109);"/>
  <path d="M 286.241 152.812 L 290.18 152.023 L 290.969 155.958 L 287.03 156.747 L 286.241 152.812 Z M 286.241 152.812" fill-opacity="1" fill-rule="nonzero" style="fill: rgb(86, 97, 109);"/>
  <path d="M 292.672 153.191 L 295.445 152.636 L 295.998 155.403 L 293.224 155.958 L 292.672 153.191 Z M 292.672 153.191" fill-opacity="1" fill-rule="nonzero" style="fill: rgb(86, 97, 109);"/>
  <path d="M 287.24 147.536 L 290.009 146.98 L 290.565 149.747 L 287.795 150.305 L 287.24 147.536 Z M 287.24 147.536" fill-opacity="1" fill-rule="nonzero" style="fill: rgb(86, 97, 109);"/>
  <path d="M 267.911 152.868 L 270.578 147.023 L 264.724 144.36 L 262.055 150.205" fill-opacity="1" fill-rule="nonzero" style="fill: rgb(86, 97, 109);"/>
  <path d="M 276.199 155.413 L 278.339 150.724 L 273.641 148.587 L 271.501 153.277" fill-opacity="1" fill-rule="nonzero" style="fill: rgb(86, 97, 109);"/>
  <path d="M 272.196 144.015 L 274.336 139.325 L 269.638 137.188 L 267.498 141.878" fill-opacity="1" fill-rule="nonzero" style="fill: rgb(86, 97, 109);"/>
  <path d="M 274.7 145.746 L 276.365 142.093 L 280.021 143.76 L 278.354 147.412 L 274.7 145.746 Z M 274.7 145.746" fill-opacity="1" fill-rule="nonzero" style="fill: rgb(86, 97, 109);"/>
  <path d="M 283.253 156.534 L 284.919 152.881 L 281.26 151.219 L 279.596 154.871" fill-opacity="1" fill-rule="nonzero" style="fill: rgb(86, 97, 109);"/>
  <path d="M 272.692 135.196 L 274.359 131.545 L 278.01 133.211 L 276.346 136.865 L 272.692 135.196 Z M 272.692 135.196" fill-opacity="1" fill-rule="nonzero" style="fill: rgb(86, 97, 109);"/>
  <path d="M 280.485 147.803 L 282.152 144.149 L 285.808 145.817 L 284.14 149.471 L 280.485 147.803 Z M 280.485 147.803" fill-opacity="1" fill-rule="nonzero" style="fill: rgb(86, 97, 109);"/>
  <path d="M 277.554 139.472 L 279.221 135.82 L 282.875 137.488 L 281.208 141.14 L 277.554 139.472 Z M 277.554 139.472" fill-opacity="1" fill-rule="nonzero" style="fill: rgb(86, 97, 109);"/>
  <path d="M 285.616 143.609 L 286.787 141.04 L 284.214 139.87 L 283.044 142.441" fill-opacity="1" fill-rule="nonzero" style="fill: rgb(86, 97, 109);"/>
  <path d="M 284.52 135.854 L 285.692 133.281 L 283.119 132.113 L 281.948 134.684" fill-opacity="1" fill-rule="nonzero" style="fill: rgb(86, 97, 109);"/>
  <path d="M 264.318 125.145 L 269.906 121.964 L 266.719 116.382 L 261.13 119.563" fill-opacity="1" fill-rule="nonzero" style="fill: rgb(86, 97, 109);"/>
  <path d="M 269.55 132.051 L 274.034 129.498 L 271.474 125.022 L 266.994 127.575" fill-opacity="1" fill-rule="nonzero" style="fill: rgb(86, 97, 109);"/>
  <path d="M 272.985 120.468 L 277.465 117.915 L 274.908 113.435 L 270.425 115.989" fill-opacity="1" fill-rule="nonzero" style="fill: rgb(86, 97, 109);"/>
  <path d="M 275.997 126.817 L 279.486 124.829 L 277.495 121.345 L 274.006 123.33" fill-opacity="1" fill-rule="nonzero" style="fill: rgb(86, 97, 109);"/>
  <path d="M 280.538 117.089 L 284.029 115.1 L 282.036 111.615 L 278.549 113.603" fill-opacity="1" fill-rule="nonzero" style="fill: rgb(86, 97, 109);"/>
  <path d="M 279.473 131.866 L 282.965 129.88 L 280.975 126.392 L 277.482 128.38" fill-opacity="1" fill-rule="nonzero" style="fill: rgb(86, 97, 109);"/>
  <path d="M 281.983 123.395 L 285.474 121.409 L 283.484 117.92 L 279.992 119.909" fill-opacity="1" fill-rule="nonzero" style="fill: rgb(86, 97, 109);"/>
  <path d="M 284.106 127.983 L 286.559 126.583 L 285.158 124.132 L 282.703 125.53" fill-opacity="1" fill-rule="nonzero" style="fill: rgb(86, 97, 109);"/>
  <path d="M 287.76 121.051 L 290.216 119.65 L 288.816 117.2 L 286.359 118.599" fill-opacity="1" fill-rule="nonzero" style="fill: rgb(86, 97, 109);"/>
  <path d="M 277.654 100.569 L 278.336 94.18 L 284.731 94.866 L 284.05 101.253 L 277.654 100.569 Z M 277.654 100.569" fill-opacity="1" fill-rule="nonzero" style="fill: rgb(86, 97, 109);"/>
  <path d="M 277.845 109.223 L 278.393 104.1 L 283.523 104.647 L 282.978 109.772 L 277.845 109.223 Z M 277.845 109.223" fill-opacity="1" fill-rule="nonzero" style="fill: rgb(86, 97, 109);"/>
  <path d="M 287.413 101.836 L 287.963 96.709 L 293.095 97.258 L 292.547 102.382 L 287.413 101.836 Z M 287.413 101.836" fill-opacity="1" fill-rule="nonzero" style="fill: rgb(86, 97, 109);"/>
  <path d="M 286.143 108.749 L 286.57 104.757 L 290.565 105.187 L 290.139 109.177 L 286.143 108.749 Z M 286.143 108.749" fill-opacity="1" fill-rule="nonzero" style="fill: rgb(86, 97, 109);"/>
  <path d="M 295.52 103.498 L 295.944 99.508 L 299.94 99.934 L 299.513 103.925 L 295.52 103.498 Z M 295.52 103.498" fill-opacity="1" fill-rule="nonzero" style="fill: rgb(86, 97, 109);"/>
  <path d="M 285.999 114.873 L 286.428 110.883 L 290.422 111.31 L 289.995 115.3 L 285.999 114.873 Z M 285.999 114.873" fill-opacity="1" fill-rule="nonzero" style="fill: rgb(86, 97, 109);"/>
  <path d="M 293.003 109.466 L 293.43 105.476 L 297.426 105.904 L 296.998 109.895 L 293.003 109.466 Z M 293.003 109.466" fill-opacity="1" fill-rule="nonzero" style="fill: rgb(86, 97, 109);"/>
  <path d="M 292.03 114.426 L 292.332 111.62 L 295.142 111.921 L 294.842 114.728 L 292.03 114.426 Z M 292.03 114.426" fill-opacity="1" fill-rule="nonzero" style="fill: rgb(86, 97, 109);"/>
  <path d="M 299.064 110.94 L 299.362 108.134 L 302.175 108.432 L 301.876 111.238 L 299.064 110.94 Z M 299.064 110.94" fill-opacity="1" fill-rule="nonzero" style="fill: rgb(86, 97, 109);"/>
  <path d="M 329.415 137.715 C 326.051 135.772 321.364 135.208 316.507 136.988 C 314.386 137.79 312.261 139.191 310.47 140.562 C 309.341 133.717 309.891 127.361 310.153 124.237 C 310.155 124.22 310.176 124.212 310.191 124.222 C 312.614 125.749 311.937 130.01 311.428 131.229 C 311.419 131.256 311.454 131.272 311.47 131.25 C 314.491 127.681 313.015 123.741 312.397 122.741 C 312.284 122.561 312.969 123.108 313.527 123.827 C 315.64 126.518 314.663 129.54 314.9 129.469 C 314.905 129.467 314.913 129.469 314.917 129.463 C 316.319 126.708 315.868 123.214 312.982 120.689 C 312.85 120.577 313.365 120.745 313.527 120.802 C 315.989 121.658 317.273 124.196 317.255 126.456 C 317.255 126.955 318.918 122.206 314.9 119.794 C 314.146 119.344 313.377 119.097 312.871 119.038 C 312.478 118.994 315.024 118.611 316.812 119.822 C 317.885 120.548 318.168 121.427 318.142 121.18 C 317.828 118.001 314.084 116.747 311.816 117.699 C 311.575 117.817 312.708 116.138 314.9 116.269 C 315.322 116.295 315.711 116.385 316.023 116.532 C 316.046 116.544 316.066 116.516 316.051 116.496 C 314.396 114.602 311.672 114.564 310.227 116.753 C 310.217 116.768 310.196 116.768 310.187 116.753 C 309.639 115.772 309.179 114.515 308.983 113.33 C 308.934 113.026 308.834 114.798 307.735 116.753 C 307.726 116.768 307.705 116.768 307.695 116.753 C 306.245 114.559 303.524 114.6 301.873 116.496 C 301.854 116.516 301.874 116.544 301.899 116.532 C 303.002 116.009 305.089 116.163 306.132 117.663 C 306.146 117.684 306.127 117.71 306.104 117.699 C 303.766 116.716 300.091 118.051 299.78 121.18 C 299.78 121.206 299.814 121.219 299.827 121.196 C 299.93 121 300.189 120.584 300.668 120.162 C 302.539 118.512 305.481 118.992 305.049 119.038 C 303.9 119.179 301.541 120.203 300.668 122.543 C 299.957 124.456 300.644 126.971 300.668 126.349 C 300.691 124.222 301.91 121.372 304.919 120.645 C 304.944 120.641 304.961 120.671 304.941 120.689 C 300.267 124.801 303.092 129.848 303.051 129.449 C 302.905 127.821 302.784 124.911 305.487 122.713 C 305.507 122.697 305.538 122.718 305.525 122.741 C 304.904 123.741 303.43 127.681 306.45 131.25 C 306.466 131.272 306.502 131.256 306.494 131.229 C 305.985 130.01 305.306 125.749 307.729 124.222 C 307.744 124.212 307.765 124.22 307.767 124.237 C 308.029 127.361 308.582 133.717 307.452 140.562 C 303.612 137.628 299.832 135.703 294.965 135.918 C 292.515 136.024 290.194 136.737 288.503 137.715 C 288.442 137.749 288.49 137.836 288.552 137.816 C 295.633 135.551 301.761 138.297 307.459 143.043 C 304.581 145.553 301.971 148.178 300.454 148.971 C 300.099 148.487 299.483 148.206 298.814 148.352 C 297.547 148.633 297.245 150.219 297.932 150.901 C 300.418 153.385 304.308 148.456 308.96 144.339 C 313.437 148.297 317.507 153.382 319.99 150.901 C 320.186 150.703 320.418 150.048 320.299 149.53 C 320.001 148.235 318.28 147.861 317.468 148.971 C 316.008 148.235 313.446 145.643 310.461 143.043 C 316.198 138.256 322.262 135.587 329.366 137.816 C 329.432 137.836 329.478 137.749 329.415 137.715" fill-opacity="1" fill-rule="nonzero" style="fill: rgb(86, 97, 109);"/>
  <g clip-path="url(#id5)" transform="matrix(0.408113, 0, 0, 0.408113, -69.615028, -16.165291)" style="">
    <path d="M 922.230469 543.152344 L 926.75 543.152344 L 926.75 502.628906 L 922.230469 502.628906 Z M 803.722656 538.636719 L 796.65625 521.304688 C 803.964844 515.113281 813.035156 516.25 818.875 521.304688 L 811.808594 538.636719 Z M 778.789062 538.636719 C 775.234375 538.527344 772.734375 538.972656 769.433594 537.933594 C 757.210938 534.070312 760.53125 517.066406 774.210938 517.066406 L 778.789062 517.066406 Z M 904.53125 538.636719 C 897.246094 538.410156 890.683594 539.921875 887.34375 534.121094 C 888.003906 531.222656 887.640625 528.621094 887.742188 515.316406 L 883.21875 515.316406 L 883.21875 530.621094 C 883.21875 541.847656 869.675781 541.121094 866.480469 534.375 C 865.199219 531.664062 865.980469 530.53125 865.746094 515.316406 L 861.21875 515.316406 L 861.21875 530.960938 C 861.21875 536.0625 858.03125 538.636719 853.589844 538.636719 L 844.828125 538.636719 L 844.828125 515.316406 L 840.304688 515.316406 L 840.304688 538.636719 L 816.558594 538.636719 L 824.472656 519.722656 C 819.980469 515.796875 813.730469 512.101562 807.738281 512.101562 C 801.648438 512.101562 795.519531 515.636719 791 519.722656 L 798.972656 538.636719 L 783.3125 538.636719 L 783.3125 512.496094 L 776.074219 512.496094 C 765.847656 512.496094 757.359375 518.378906 757.359375 528.023438 C 757.359375 545.183594 778.398438 543.066406 778.789062 543.152344 C 778.71875 543.710938 779.351562 547.585938 776.753906 549.535156 C 774.324219 551.355469 769.984375 551.304688 767.28125 550.664062 C 766.171875 550.398438 764.898438 549.949219 763.46875 549.308594 L 762.054688 553.65625 C 764.921875 554.710938 767.660156 555.578125 770.703125 555.578125 C 779.324219 555.578125 783.3125 551.273438 783.3125 544 L 783.3125 543.152344 C 857.125 542.6875 854.945312 544.214844 859.441406 541.742188 C 861.15625 540.804688 862.542969 539.542969 863.597656 537.957031 C 864.691406 539.765625 866.179688 541.179688 868.0625 542.195312 C 872.019531 544.320312 878.054688 544.121094 881.71875 542.304688 C 883.621094 541.367188 885.085938 539.917969 886.101562 537.957031 C 887.847656 540.941406 890.554688 542.859375 895.996094 543.101562 L 895.996094 543.152344 L 909.054688 543.152344 L 909.054688 502.628906 L 904.53125 502.628906 Z M 1310.367188 536.632812 C 1306.367188 545.992188 1292.589844 546.261719 1288.601562 536.492188 C 1287.429688 533.625 1287.429688 530.226562 1288.601562 527.316406 C 1293.429688 515.347656 1311.304688 518.785156 1311.304688 531.917969 C 1311.304688 533.609375 1310.992188 535.183594 1310.367188 536.632812 M 1266.492188 536.632812 C 1263.035156 544.675781 1252.605469 545.867188 1247.15625 540.246094 C 1242.683594 535.621094 1242.816406 528.082031 1247.132812 523.535156 C 1250.648438 519.796875 1256.070312 519.195312 1260.21875 520.90625 C 1266.757812 523.632812 1268.933594 530.960938 1266.492188 536.632812 M 1156.496094 538.636719 C 1153.039062 538.527344 1150.53125 538.980469 1147.25 537.90625 C 1135.339844 533.988281 1138.179688 517.011719 1152.027344 517.011719 L 1156.496094 517.011719 Z M 1329.957031 538.636719 L 1314.414062 538.636719 C 1319.265625 527.980469 1311.726562 515.488281 1299.316406 515.488281 C 1287.882812 515.488281 1279.886719 527.210938 1284.554688 538.636719 L 1270.535156 538.636719 C 1275.261719 528.292969 1268.097656 515.488281 1255.441406 515.488281 C 1244 515.488281 1236.011719 527.214844 1240.683594 538.636719 L 1226.320312 538.636719 L 1226.320312 502.628906 L 1221.796875 502.628906 L 1221.796875 538.636719 L 1207.382812 538.636719 C 1207.136719 533.996094 1208.4375 527.132812 1204.554688 522.796875 C 1201.921875 519.828125 1198.992188 518.902344 1195 518.902344 L 1174.984375 518.902344 L 1183.5 502.628906 L 1178.578125 502.628906 L 1169.894531 518.847656 C 1170.175781 520.648438 1170.722656 522.054688 1171.933594 523.417969 C 1194.554688 523.609375 1196.03125 522.945312 1198.703125 524.070312 C 1200.800781 524.9375 1202.078125 526.523438 1202.523438 528.445312 C 1203.058594 530.765625 1202.789062 532.507812 1202.863281 538.636719 L 1161.019531 538.636719 L 1161.019531 512.496094 L 1153.894531 512.496094 C 1141.910156 512.496094 1135.238281 519.628906 1135.238281 527.851562 C 1135.238281 538.152344 1143.519531 543.152344 1153.894531 543.152344 L 1243.621094 543.152344 C 1250.277344 550.324219 1261.480469 549.714844 1267.59375 543.152344 L 1287.496094 543.152344 C 1294.128906 550.304688 1305.320312 549.742188 1311.472656 543.152344 L 1334.484375 543.152344 L 1334.484375 502.628906 L 1329.957031 502.628906 Z M 1347.65625 543.152344 L 1352.175781 543.152344 L 1352.175781 502.628906 L 1347.65625 502.628906 Z M 1014.394531 553.097656 L 1019.039062 553.097656 L 1019.039062 548.457031 L 1014.394531 548.457031 Z M 1058.613281 538.636719 L 1051.542969 521.304688 C 1058.796875 515.160156 1067.855469 516.195312 1073.765625 521.304688 L 1066.699219 538.636719 Z M 1090.667969 538.636719 L 1071.449219 538.636719 L 1079.359375 519.722656 C 1074.859375 515.773438 1068.585938 512.101562 1062.625 512.101562 C 1056.515625 512.101562 1050.40625 515.65625 1045.890625 519.722656 L 1053.859375 538.636719 L 1037.015625 538.636719 L 1037.015625 512.496094 L 1032.492188 512.496094 L 1032.492188 544.113281 C 1032.492188 548.105469 1032.199219 551.058594 1028.195312 551.058594 C 1027.261719 551.058594 1026.769531 550.976562 1025.878906 550.71875 L 1024.691406 555.070312 C 1028.472656 556.105469 1032.933594 555.757812 1035.152344 552.496094 C 1037.15625 549.546875 1036.917969 545.472656 1037.015625 543.152344 L 1095.195312 543.152344 L 1095.195312 502.628906 L 1090.667969 502.628906 Z M 747.296875 516.449219 C 742.269531 510.957031 736.445312 512.945312 734.460938 512.496094 L 734.460938 517.011719 C 737.761719 517.140625 739.289062 516.648438 741.527344 517.71875 C 743.410156 518.625 744.742188 520.085938 745.289062 522.148438 C 745.902344 524.519531 745.558594 526.371094 745.65625 538.636719 L 724.453125 538.636719 L 724.453125 543.152344 L 750.179688 543.152344 C 749.992188 526.039062 750.648438 524.222656 749.472656 520.398438 C 749 518.859375 748.273438 517.539062 747.296875 516.449219 M 997.855469 553.148438 L 1002.503906 553.148438 L 1002.503906 548.511719 L 997.855469 548.511719 Z M 970.355469 538.636719 C 966.902344 538.527344 964.390625 538.980469 961.109375 537.90625 C 949.183594 533.984375 952.054688 517.011719 965.886719 517.011719 L 970.355469 517.011719 Z M 1018.980469 512.496094 L 1014.457031 512.496094 L 1014.457031 538.636719 L 997.382812 538.636719 L 997.382812 512.496094 L 992.859375 512.496094 L 992.859375 538.636719 L 974.878906 538.636719 L 974.878906 512.496094 C 969.191406 512.675781 960.707031 511.34375 954.183594 516.871094 C 944.941406 524.703125 947.324219 543.152344 967.757812 543.152344 L 1018.980469 543.152344 Z M 989.933594 553.148438 L 994.582031 553.148438 L 994.582031 548.511719 L 989.933594 548.511719 Z M 687.671875 502.628906 L 683.027344 502.628906 L 683.027344 507.265625 L 687.671875 507.265625 Z M 1153.078125 502.628906 L 1148.429688 502.628906 L 1148.429688 507.265625 L 1153.078125 507.265625 Z M 974.859375 502.628906 L 970.210938 502.628906 L 970.210938 507.265625 L 974.859375 507.265625 Z M 714.355469 553.148438 L 719.003906 553.148438 L 719.003906 548.511719 L 714.355469 548.511719 Z M 966.933594 502.628906 L 962.289062 502.628906 L 962.289062 507.265625 L 966.933594 507.265625 Z M 695.597656 502.628906 L 690.949219 502.628906 L 690.949219 507.265625 L 695.597656 507.265625 Z M 706.433594 553.148438 L 711.078125 553.148438 L 711.078125 548.511719 L 706.433594 548.511719 Z M 691.09375 538.636719 C 687.648438 538.527344 685.125 538.980469 681.851562 537.90625 C 669.949219 534 672.757812 517.011719 686.628906 517.011719 L 691.09375 517.011719 Z M 718.121094 512.496094 L 713.597656 512.496094 L 713.597656 538.636719 L 695.617188 538.636719 L 695.617188 512.496094 C 690.195312 512.664062 685.882812 511.953125 680.800781 513.652344 C 676.542969 515.082031 673.058594 517.71875 671.160156 521.757812 C 669.1875 525.960938 669.542969 531.308594 671.363281 534.742188 C 674.640625 540.929688 681.492188 543.152344 688.492188 543.152344 L 718.121094 543.152344 Z M 1108.367188 543.152344 L 1112.890625 543.152344 L 1112.890625 502.628906 L 1108.367188 502.628906 Z M 1160.996094 502.628906 L 1156.347656 502.628906 L 1156.347656 507.265625 L 1160.996094 507.265625 Z M 1160.996094 502.628906 " fill-opacity="1" fill-rule="nonzero" style="fill: rgb(86, 97, 109);"/>
  </g>
  <path d="M 205.562 217.615 L 207.877 217.615 L 207.877 224.236 L 214.149 217.615 L 216.994 217.615 L 211.512 223.277 L 217.241 230.782 L 214.434 230.782 L 209.931 224.857 L 207.877 226.963 L 207.877 230.782 L 205.562 230.782" fill-opacity="1" fill-rule="nonzero" style="fill: rgb(86, 97, 109);"/>
  <path d="M 219.35 217.615 L 221.671 217.615 L 221.671 230.782 L 219.35 230.782 L 219.35 217.615 Z M 219.35 217.615" fill-opacity="1" fill-rule="nonzero" style="fill: rgb(86, 97, 109);"/>
  <path d="M 225.235 217.615 L 227.384 217.615 L 234.448 226.717 L 234.448 217.615 L 236.726 217.615 L 236.726 230.782 L 234.784 230.782 L 227.516 221.415 L 227.516 230.782 L 225.235 230.782" fill-opacity="1" fill-rule="nonzero" style="fill: rgb(86, 97, 109);"/>
  <path d="M 239.595 224.236 L 239.595 224.198 C 239.595 220.512 242.421 217.386 246.393 217.386 C 248.692 217.386 250.106 218.028 251.461 219.176 L 249.993 220.926 C 246.422 217.892 242.026 220.076 242.026 224.163 L 242.026 224.198 C 242.026 226.907 243.813 228.9 246.509 228.9 C 247.751 228.9 248.881 228.506 249.69 227.903 L 249.69 225.44 L 246.319 225.44 L 246.319 223.428 L 251.933 223.428 L 251.933 228.956 C 247.218 232.988 239.595 230.915 239.595 224.236" fill-opacity="1" fill-rule="nonzero" style="fill: rgb(86, 97, 109);"/>
  <path d="M 260.048 228.675 C 266.198 228.675 266.124 219.721 260.048 219.721 L 257.45 219.721 L 257.45 228.675 L 260.048 228.675 Z M 255.134 217.615 L 260.048 217.615 C 269.455 217.615 269.329 230.782 260.048 230.782 L 255.134 230.782 L 255.134 217.615 Z M 255.134 217.615" fill-opacity="1" fill-rule="nonzero" style="fill: rgb(86, 97, 109);"/>
  <path d="M 280.583 224.236 L 280.583 224.198 C 280.583 221.639 278.719 219.515 276.099 219.515 C 273.482 219.515 271.656 221.603 271.656 224.163 L 271.656 224.198 C 271.656 226.758 273.518 228.884 276.136 228.884 C 278.756 228.884 280.583 226.796 280.583 224.236 M 269.224 224.236 L 269.224 224.198 C 269.224 220.494 272.09 217.386 276.136 217.386 C 280.187 217.386 283.012 220.456 283.012 224.163 L 283.012 224.198 C 283.012 227.903 280.151 231.006 276.099 231.006 C 272.05 231.006 269.224 227.941 269.224 224.236" fill-opacity="1" fill-rule="nonzero" style="fill: rgb(86, 97, 109);"/>
  <path d="M 285.891 217.615 L 288.357 217.615 L 292.37 223.842 L 296.382 217.615 L 298.847 217.615 L 298.847 230.782 L 296.531 230.782 L 296.531 221.341 L 292.37 227.547 L 292.296 227.547 L 288.171 221.376 L 288.171 230.782 L 285.891 230.782" fill-opacity="1" fill-rule="nonzero" style="fill: rgb(86, 97, 109);"/>
  <path d="M 318.671 224.236 L 318.671 224.198 C 318.671 221.639 316.805 219.515 314.187 219.515 C 311.568 219.515 309.744 221.603 309.744 224.163 L 309.744 224.198 C 309.744 226.758 311.608 228.884 314.226 228.884 C 316.843 228.884 318.671 226.796 318.671 224.236 M 307.312 224.236 L 307.312 224.198 C 307.312 220.494 310.176 217.386 314.226 217.386 C 318.274 217.386 321.099 220.456 321.099 224.163 L 321.099 224.198 C 321.099 227.903 318.237 231.006 314.187 231.006 C 310.138 231.006 307.312 227.941 307.312 224.236" fill-opacity="1" fill-rule="nonzero" style="fill: rgb(86, 97, 109);"/>
  <path d="M 323.979 217.615 L 333.793 217.615 L 333.793 219.723 L 326.298 219.723 L 326.298 223.315 L 332.945 223.315 L 332.945 225.421 L 326.298 225.421 L 326.298 230.782 L 323.979 230.782" fill-opacity="1" fill-rule="nonzero" style="fill: rgb(86, 97, 109);"/>
  <path d="M 341.106 228.864 L 342.499 227.208 C 343.759 228.3 345.022 228.92 346.66 228.92 C 348.091 228.92 348.997 228.262 348.997 227.264 L 348.997 227.229 C 348.997 224.287 341.63 226.295 341.63 221.282 L 341.63 221.245 C 341.63 217.203 347.284 216.173 350.917 219.083 L 349.675 220.831 C 346.642 218.574 343.949 219.463 343.949 221.04 L 343.949 221.078 C 343.949 223.976 351.313 222.145 351.313 226.999 L 351.313 227.038 C 351.313 231.657 344.773 232.131 341.106 228.864" fill-opacity="1" fill-rule="nonzero" style="fill: rgb(86, 97, 109);"/>
  <path d="M 361.729 225.554 L 359.449 220.286 L 357.188 225.554 L 361.729 225.554 Z M 358.413 217.52 L 360.559 217.52 L 366.361 230.782 L 363.913 230.782 L 362.575 227.603 L 356.341 227.603 L 354.985 230.782 L 352.612 230.782 L 358.413 217.52 Z M 358.413 217.52" fill-opacity="1" fill-rule="nonzero" style="fill: rgb(86, 97, 109);"/>
  <path d="M 367.726 225.197 L 367.726 217.615 L 370.042 217.615 L 370.042 225.102 C 370.042 227.548 371.304 228.864 373.375 228.864 C 375.428 228.864 376.691 227.622 376.691 225.197 L 376.691 217.615 L 379.006 217.615 L 379.006 225.084 C 379.006 229.013 376.785 230.989 373.336 230.989 C 369.909 230.989 367.726 229.013 367.726 225.197" fill-opacity="1" fill-rule="nonzero" style="fill: rgb(86, 97, 109);"/>
  <path d="M 387.314 228.675 C 393.462 228.675 393.389 219.721 387.314 219.721 L 384.714 219.721 L 384.714 228.675 L 387.314 228.675 Z M 382.398 217.615 L 387.314 217.615 C 396.719 217.615 396.591 230.782 387.314 230.782 L 382.398 230.782 L 382.398 217.615 Z M 382.398 217.615" fill-opacity="1" fill-rule="nonzero" style="fill: rgb(86, 97, 109);"/>
  <path d="M 397.256 217.615 L 399.571 217.615 L 399.571 230.782 L 397.256 230.782 L 397.256 217.615 Z M 397.256 217.615" fill-opacity="1" fill-rule="nonzero" style="fill: rgb(86, 97, 109);"/>
  <path d="M 416.736 225.554 L 414.455 220.286 L 412.195 225.554 L 416.736 225.554 Z M 413.419 217.52 L 415.566 217.52 L 421.365 230.782 L 418.919 230.782 L 417.58 227.603 L 411.347 227.603 L 409.992 230.782 L 407.616 230.782 L 413.419 217.52 Z M 413.419 217.52" fill-opacity="1" fill-rule="nonzero" style="fill: rgb(86, 97, 109);"/>
  <path d="M 429.263 224.141 C 430.921 224.141 431.974 223.277 431.974 221.941 L 431.974 221.903 C 431.974 220.494 430.958 219.721 429.245 219.721 L 425.872 219.721 L 425.872 224.141 L 429.263 224.141 Z M 423.556 217.615 L 429.432 217.615 C 432.22 217.615 434.329 219.018 434.329 221.773 C 434.277 221.918 434.604 224.819 431.185 225.799 L 434.745 230.782 L 432.012 230.782 L 428.773 226.192 C 428.52 226.192 425.725 226.192 425.872 226.192 L 425.872 230.782 L 423.556 230.782 L 423.556 217.615 Z M 423.556 217.615" fill-opacity="1" fill-rule="nonzero" style="fill: rgb(86, 97, 109);"/>
  <path d="M 445.565 225.554 L 443.285 220.286 L 441.026 225.554 L 445.565 225.554 Z M 442.251 217.52 L 444.397 217.52 L 450.198 230.782 L 447.751 230.782 L 446.413 227.603 L 440.176 227.603 L 438.823 230.782 L 436.449 230.782 L 442.251 217.52 Z M 442.251 217.52" fill-opacity="1" fill-rule="nonzero" style="fill: rgb(86, 97, 109);"/>
  <path d="M 458.506 228.732 C 460.09 228.732 461.049 228.108 461.049 226.925 L 461.049 226.889 C 461.049 225.78 460.166 225.12 458.339 225.12 L 454.666 225.12 L 454.666 228.732 L 458.506 228.732 Z M 457.829 223.166 C 459.316 223.166 460.315 222.58 460.315 221.376 L 460.315 221.341 C 460.315 220.304 459.488 219.667 457.999 219.667 L 454.666 219.667 L 454.666 223.166 L 457.829 223.166 Z M 452.386 217.615 L 458.3 217.615 C 460.619 217.615 462.633 218.699 462.633 220.963 C 462.578 221.109 462.869 222.836 460.749 223.935 C 462.293 224.461 463.366 225.348 463.366 227.133 L 463.366 227.169 C 463.366 229.522 461.427 230.782 458.488 230.782 L 452.386 230.782 L 452.386 217.615 Z M 452.386 217.615" fill-opacity="1" fill-rule="nonzero" style="fill: rgb(86, 97, 109);"/>
  <path d="M 466.235 217.615 L 468.554 217.615 L 468.554 230.782 L 466.235 230.782 L 466.235 217.615 Z M 466.235 217.615" fill-opacity="1" fill-rule="nonzero" style="fill: rgb(86, 97, 109);"/>
  <path d="M 479.883 225.554 L 477.603 220.286 L 475.342 225.554 L 479.883 225.554 Z M 476.567 217.52 L 478.711 217.52 L 484.515 230.782 L 482.067 230.782 L 480.729 227.603 L 474.494 227.603 L 473.138 230.782 L 470.765 230.782 L 476.567 217.52 Z M 476.567 217.52" fill-opacity="1" fill-rule="nonzero" style="fill: rgb(86, 97, 109);"/>
  <path stroke-linecap="butt" stroke-linejoin="miter" d="M 57.438 134.908 L 315.164 134.908" stroke="#c2921d" stroke-width="1" stroke-opacity="1" stroke-miterlimit="4" style="fill: rgb(86, 97, 109);" transform="matrix(0, 1, -1, 0, 321.209011, -51.392991)"/>
  <path d="M 62.101 45.06 C 61.966 44.978 61.884 44.835 61.884 44.683 L 61.884 29.82 C 61.882 29.656 61.97 29.504 62.112 29.422 L 79.516 19.377 C 79.699 19.269 79.931 19.401 79.933 19.613 C 79.933 19.613 79.933 19.616 79.933 19.616 L 79.933 128.289 C 79.933 128.466 79.831 128.624 79.677 128.691 L 71.22 132.316 C 71.114 132.364 70.991 132.287 70.989 132.171 C 70.843 128.424 70.797 124.676 70.848 120.928 C 70.931 114.892 70.974 111.661 70.974 111.238 C 70.985 90.977 70.972 70.713 70.94 50.453 C 70.94 50.301 70.858 50.159 70.727 50.085 L 62.101 45.06 Z" style="fill: rgb(86, 97, 109);"/>
  <path d="M 93.923 43.896 C 94.016 44.998 94.04 46.103 93.992 47.206 C 93.91 49.038 93.87 50.137 93.87 50.501 C 93.941 74.235 93.969 98.082 93.956 122.039 C 93.956 122.358 93.765 122.65 93.467 122.78 L 85.176 126.366 C 85.048 126.42 84.902 126.328 84.9 126.187 L 84.9 36.91 C 84.9 36.79 85.028 36.714 85.131 36.773 C 85.131 36.773 85.131 36.773 85.134 36.773 C 87.722 38.243 90.307 39.733 92.892 41.243 C 92.913 41.254 93.064 41.331 93.341 41.469 C 93.866 41.725 94.095 42.124 94.029 42.671 C 93.95 43.372 93.913 43.781 93.923 43.896 Z" style="fill: rgb(86, 97, 109);"/>
  <path d="M 69.243 227.388 L 69.271 157.576 C 69.271 157.326 69.422 157.102 69.651 157.004 L 101.326 143.506 C 101.569 143.402 101.84 143.576 101.846 143.839 C 101.878 144.98 101.874 146.054 101.835 147.06 C 101.771 148.68 101.741 149.752 101.743 150.279 C 101.792 169.719 101.798 189.162 101.762 208.606 C 101.743 218.298 101.767 227.906 101.831 237.433 C 101.831 237.786 101.547 238.073 101.196 238.073 L 49.803 238.073 C 49.584 238.073 49.405 237.895 49.405 237.676 L 49.405 53.598 C 49.405 53.329 49.54 53.075 49.765 52.926 L 59.301 46.503 C 59.65 46.267 59.824 46.36 59.824 46.781 L 59.824 227.368 C 59.824 227.527 59.949 227.655 60.106 227.655 L 69 227.626 C 69.135 227.626 69.243 227.52 69.243 227.388 Z M 101.624 143.911 C 101.624 143.878 101.595 143.849 101.56 143.849 C 101.525 143.849 101.496 143.878 101.496 143.911 L 101.496 237.502 C 101.496 237.538 101.525 237.564 101.56 237.564 C 101.595 237.564 101.624 237.538 101.624 237.502 L 101.624 143.911 Z M 91.074 160.808 L 79.957 165.722 C 79.796 165.797 79.692 165.954 79.692 166.129 L 79.692 227.403 C 79.692 227.542 79.804 227.655 79.944 227.655 L 91.001 227.655 C 91.177 227.655 91.32 227.511 91.32 227.335 L 91.32 160.963 C 91.318 160.838 91.188 160.756 91.074 160.808 Z" style="fill: rgb(86, 97, 109);"/>
  <path d="M 112.855 130.3 L 112.884 73.169 C 112.884 72.909 112.996 72.842 113.224 72.975 L 122.189 78.321 C 122.354 78.418 122.453 78.597 122.453 78.792 L 122.453 126.786 C 122.453 127.02 122.327 127.236 122.125 127.349 C 119.366 128.913 116.575 130.456 113.753 131.981 C 113.727 131.992 113.583 132.087 113.316 132.267 C 112.859 132.568 112.688 132.248 112.798 131.309 C 112.835 130.972 112.855 130.637 112.855 130.3 Z" style="fill: rgb(86, 97, 109);"/>
  <path d="M 96.502 121.171 L 96.53 82.115 C 96.53 81.792 96.663 81.721 96.928 81.901 L 108.416 89.762 C 108.635 89.914 108.764 90.161 108.764 90.426 L 108.764 115.842 C 108.764 116.082 108.622 116.302 108.396 116.397 L 96.79 121.36 C 96.656 121.42 96.502 121.321 96.502 121.171 Z" style="fill: rgb(86, 97, 109);"/>
  <path d="M 17.622 227.631 L 27.875 227.573 C 28.008 227.573 28.113 227.461 28.113 227.319 L 28.178 98.236 C 28.178 97.959 28.329 97.705 28.574 97.574 L 38.081 92.426 C 38.313 92.303 38.593 92.469 38.595 92.731 C 38.604 138.789 38.61 184.925 38.615 231.139 C 38.615 233.166 38.617 235.263 38.623 237.424 C 38.627 237.781 38.337 238.073 37.98 238.073 L 7.443 238.073 C 7.149 238.073 6.914 237.837 6.914 237.546 L 6.914 158.1 C 6.914 157.84 7.057 157.6 7.286 157.474 L 16.843 152.299 C 17.109 152.156 17.433 152.35 17.428 152.654 C 17.267 173.704 17.269 194.626 17.439 215.421 C 17.471 219.225 17.433 223.19 17.323 227.311 C 17.316 227.487 17.453 227.631 17.622 227.631 Z" style="fill: rgb(86, 97, 109);"/>
  <path d="M 142.152 121.078 C 142.126 159.947 142.172 198.772 142.293 237.551 C 142.293 237.839 142.059 238.073 141.773 238.073 L 132.316 238.048 C 132.012 238.046 131.767 237.794 131.772 237.491 C 131.844 231.338 131.868 225.515 131.844 220.022 C 131.802 208.555 131.811 197.086 131.868 185.618 C 132.006 158.563 131.976 131.426 131.782 104.207 C 131.78 103.982 132.021 103.839 132.219 103.945 L 141.93 109.184 C 142.174 109.313 142.324 109.576 142.317 109.855 C 142.207 113.532 142.152 117.274 142.152 121.078 Z" style="fill: rgb(86, 97, 109);"/>
  <path d="M 86.524 144.024 C 86.401 144.077 86.26 143.983 86.251 143.845 C 86.062 140.006 86.051 136.173 86.218 132.345 C 86.227 132.155 86.341 131.99 86.513 131.919 L 96.156 127.886 C 96.317 127.82 96.495 127.932 96.506 128.104 C 96.722 132.106 96.724 135.964 96.515 139.673 C 96.506 139.826 96.412 139.959 96.272 140.017 L 86.524 144.024 Z" style="fill: rgb(86, 97, 109);"/>
  <path d="M 17.331 132.349 L 17.279 145.245 C 17.277 145.396 17.193 145.535 17.06 145.608 L 7.418 150.823 C 7.231 150.922 7.007 150.789 6.997 150.574 C 6.82 146.19 6.82 141.963 6.997 137.888 C 7.002 137.736 7.083 137.599 7.209 137.527 L 17.007 132.155 C 17.153 132.074 17.334 132.181 17.331 132.349 C 17.331 132.349 17.331 132.349 17.331 132.349 Z" style="fill: rgb(86, 97, 109);"/>
  <path d="M 82.026 145.187 C 82.024 145.368 81.914 145.531 81.746 145.604 L 71.952 149.639 C 71.843 149.686 71.725 149.608 71.725 149.494 L 71.697 137.903 C 71.697 137.689 71.828 137.495 72.036 137.409 L 81.557 133.431 C 81.821 133.319 82.114 133.508 82.11 133.788 L 82.026 145.187 Z" style="fill: rgb(86, 97, 109);"/>
  <path d="M 123.22 137.762 C 123.379 141.116 123.37 144.469 123.196 147.823 C 123.187 147.976 123.101 148.112 122.974 148.18 L 113.131 153.492 C 113.031 153.546 112.908 153.474 112.908 153.361 L 112.88 140.433 C 112.877 140.282 112.961 140.14 113.097 140.069 L 122.938 134.758 C 123.049 134.697 123.185 134.758 123.215 134.88 C 123.331 135.36 123.363 135.845 123.312 136.327 C 123.238 137.054 123.207 137.533 123.22 137.762 Z" style="fill: rgb(86, 97, 109);"/>
  <rect x="101.496" y="143.849" width="0.125" height="93.716" rx="0.13" style="fill: rgb(86, 97, 109);"/>
  <path d="M 112.855 159.442 C 112.855 159.326 112.919 159.217 113.024 159.16 L 122.963 153.754 C 123.064 153.699 123.187 153.769 123.191 153.884 C 123.366 158.369 123.366 162.687 123.191 166.84 C 123.185 166.997 123.099 167.137 122.969 167.205 L 113.219 172.541 C 113.076 172.616 112.901 172.514 112.899 172.351 L 112.855 159.442 Z" style="fill: rgb(86, 97, 109);"/>
  <path d="M 112.859 233.925 C 112.906 215.489 112.901 196.929 112.85 178.244 C 112.85 177.986 112.994 177.751 113.224 177.627 L 122.793 172.428 C 123.011 172.311 123.273 172.468 123.273 172.715 L 123.273 237.628 C 123.273 237.874 123.073 238.073 122.828 238.073 L 113.228 238.073 C 113.045 238.073 112.895 237.927 112.888 237.744 C 112.867 236.338 112.857 235.067 112.859 233.925 Z" style="fill: rgb(86, 97, 109);"/>
</svg>